<svg xmlns="http://www.w3.org/2000/svg" viewBox="0 0 520 360" role="img" aria-labelledby="title"><title>Романтичная сцена</title><defs><linearGradient id="g" x1="0" x2="1"><stop stop-color="#ff8fb3"/><stop offset="1" stop-color="#ffd6a5"/></linearGradient><filter id="s" x="-20%" y="-20%" width="140%" height="140%"><feDropShadow dx="0" dy="18" stdDeviation="16" flood-color="#c4517d" flood-opacity=".22"/></filter></defs><rect width="520" height="360" rx="46" fill="#fff7fb"/><circle cx="410" cy="82" r="54" fill="#ffe4a3"/><path d="M92 260c78-92 146-92 204 0 50-75 103-75 158 0" fill="none" stroke="#f3bfd1" stroke-width="18" stroke-linecap="round"/><g filter="url(#s)"><path d="M263 231c-69-52-112-91-112-139 0-32 24-56 56-56 24 0 44 13 56 32 12-19 32-32 56-32 32 0 56 24 56 56 0 48-43 87-112 139z" fill="url(#g)"/><path d="M187 287h152" stroke="#7c5367" stroke-width="18" stroke-linecap="round"/><circle cx="218" cy="286" r="30" fill="#ffb3c7"/><circle cx="308" cy="286" r="30" fill="#ffb3c7"/></g><g fill="#ff79a6" opacity=".8"><path d="M91 92c-17-13-28-23-28-35 0-9 7-16 16-16 6 0 11 3 12 7 3-4 8-7 14-7 9 0 16 7 16 16 0 12-11 22-30 35z"/><path d="M432 221c-16-12-25-21-25-33 0-8 6-14 14-14 5 0 10 3 11 6 2-3 7-6 12-6 8 0 14 6 14 14 0 12-9 21-26 33z"/></g></svg>
